<svg width="18" height="18" viewBox="0 0 18 18" fill="none" xmlns="http://www.w3.org/2000/svg">
<g clip-path="url(#clip0_87_657)">
<path d="M6.549 10.326C6.195 9.97124 6 9.50024 6 8.99999C6 8.49974 6.195 8.02874 6.5505 7.67249L13.5195 0.638993C13.665 0.491993 13.6643 0.254243 13.5173 0.108743C13.3695 -0.0367567 13.1325 -0.0352567 12.987 0.111743L6.01875 7.14449C5.523 7.64024 5.25 8.29949 5.25 9.00074C5.25 9.70199 5.523 10.3605 6.018 10.8555L12.987 17.8897C13.0605 17.964 13.1565 18.0007 13.2533 18.0007C13.3485 18.0007 13.4438 17.9647 13.5173 17.892C13.6643 17.7465 13.665 17.5087 13.5195 17.3617L6.549 10.326Z" fill="#0E6D62"/>
</g>
<defs>
<clipPath id="clip0_87_657">
<rect width="18" height="18" fill="white"/>
</clipPath>
</defs>
</svg>
