<svg width="25" height="25" viewBox="0 0 25 25" fill="none" xmlns="http://www.w3.org/2000/svg">
<g clip-path="url(#clip0_85_236)">
<path d="M5.20833 2.08333H6.25V1.04167C6.25 0.765399 6.35975 0.500448 6.5551 0.305097C6.75045 0.109747 7.0154 0 7.29167 0C7.56793 0 7.83289 0.109747 8.02824 0.305097C8.22359 0.500448 8.33333 0.765399 8.33333 1.04167V2.08333H16.6667V1.04167C16.6667 0.765399 16.7764 0.500448 16.9718 0.305097C17.1671 0.109747 17.4321 0 17.7083 0C17.9846 0 18.2496 0.109747 18.4449 0.305097C18.6403 0.500448 18.75 0.765399 18.75 1.04167V2.08333H19.7917C21.1725 2.08499 22.4963 2.63425 23.4727 3.61065C24.4491 4.58704 24.9983 5.91084 25 7.29167V19.7917C24.9983 21.1725 24.4491 22.4963 23.4727 23.4727C22.4963 24.4491 21.1725 24.9983 19.7917 25H5.20833C3.82751 24.9983 2.50371 24.4491 1.52731 23.4727C0.550919 22.4963 0.00165558 21.1725 0 19.7917V7.29167C0.00165558 5.91084 0.550919 4.58704 1.52731 3.61065C2.50371 2.63425 3.82751 2.08499 5.20833 2.08333ZM22.9167 7.29167C22.9167 6.46286 22.5874 5.66801 22.0014 5.08196C21.4153 4.49591 20.6205 4.16667 19.7917 4.16667H5.20833C4.37953 4.16667 3.58468 4.49591 2.99862 5.08196C2.41257 5.66801 2.08333 6.46286 2.08333 7.29167V8.33333H22.9167V7.29167ZM5.20833 22.9167H19.7917C20.6205 22.9167 21.4153 22.5874 22.0014 22.0014C22.5874 21.4153 22.9167 20.6205 22.9167 19.7917V10.4167H2.08333V19.7917C2.08333 20.6205 2.41257 21.4153 2.99862 22.0014C3.58468 22.5874 4.37953 22.9167 5.20833 22.9167Z" fill="#0E6D62"/>
<path d="M12.5 17.1875C11.6371 17.1875 10.9375 16.4879 10.9375 15.625C10.9375 14.7621 11.6371 14.0625 12.5 14.0625C13.3629 14.0625 14.0625 14.7621 14.0625 15.625C14.0625 16.4879 13.3629 17.1875 12.5 17.1875Z" fill="#0E6D62"/>
<path d="M17.7083 17.1875C16.8454 17.1875 16.1458 16.4879 16.1458 15.625C16.1458 14.7621 16.8454 14.0625 17.7083 14.0625C18.5713 14.0625 19.2708 14.7621 19.2708 15.625C19.2708 16.4879 18.5713 17.1875 17.7083 17.1875Z" fill="#0E6D62"/>
<path d="M7.29169 17.1875C6.42874 17.1875 5.72919 16.4879 5.72919 15.625C5.72919 14.7621 6.42874 14.0625 7.29169 14.0625C8.15463 14.0625 8.85419 14.7621 8.85419 15.625C8.85419 16.4879 8.15463 17.1875 7.29169 17.1875Z" fill="#0E6D62"/>
</g>
<defs>
<clipPath id="clip0_85_236">
<rect width="25" height="25" fill="white" transform="matrix(-1 0 0 1 25 0)"/>
</clipPath>
</defs>
</svg>
