<svg width="25" height="25" viewBox="0 0 25 25" fill="none" xmlns="http://www.w3.org/2000/svg">
<g clip-path="url(#clip0_85_233)">
<path d="M0 19.7917C0.00165402 21.1725 0.550919 22.4963 1.52731 23.4727C2.50371 24.4491 3.82751 24.9984 5.20833 25H19.7917C21.1725 24.9984 22.4963 24.4491 23.4727 23.4727C24.4491 22.4963 24.9983 21.1725 25 19.7917V10.4167H0V19.7917ZM17.7083 15.1042C18.0174 15.1042 18.3195 15.1958 18.5764 15.3675C18.8334 15.5392 19.0336 15.7832 19.1519 16.0687C19.2702 16.3543 19.3011 16.6684 19.2408 16.9715C19.1805 17.2746 19.0317 17.553 18.8132 17.7715C18.5947 17.9901 18.3163 18.1389 18.0132 18.1992C17.7101 18.2595 17.3959 18.2285 17.1104 18.1102C16.8249 17.992 16.5809 17.7917 16.4092 17.5348C16.2375 17.2778 16.1458 16.9757 16.1458 16.6667C16.1458 16.2523 16.3105 15.8549 16.6035 15.5618C16.8965 15.2688 17.2939 15.1042 17.7083 15.1042ZM12.5 15.1042C12.809 15.1042 13.1111 15.1958 13.3681 15.3675C13.625 15.5392 13.8253 15.7832 13.9436 16.0687C14.0618 16.3543 14.0928 16.6684 14.0325 16.9715C13.9722 17.2746 13.8234 17.553 13.6049 17.7715C13.3863 17.9901 13.1079 18.1389 12.8048 18.1992C12.5017 18.2595 12.1876 18.2285 11.9021 18.1102C11.6165 17.992 11.3725 17.7917 11.2008 17.5348C11.0291 17.2778 10.9375 16.9757 10.9375 16.6667C10.9375 16.2523 11.1021 15.8549 11.3951 15.5618C11.6882 15.2688 12.0856 15.1042 12.5 15.1042ZM7.29167 15.1042C7.6007 15.1042 7.90279 15.1958 8.15975 15.3675C8.4167 15.5392 8.61697 15.7832 8.73523 16.0687C8.85349 16.3543 8.88443 16.6684 8.82414 16.9715C8.76385 17.2746 8.61504 17.553 8.39652 17.7715C8.178 17.9901 7.89959 18.1389 7.5965 18.1992C7.2934 18.2595 6.97923 18.2285 6.69372 18.1102C6.40821 17.992 6.16419 17.7917 5.9925 17.5348C5.82081 17.2778 5.72917 16.9757 5.72917 16.6667C5.72917 16.2523 5.89379 15.8549 6.18681 15.5618C6.47984 15.2688 6.87727 15.1042 7.29167 15.1042Z" fill="#0E6D62"/>
<path d="M19.7917 2.08333H18.75V1.04167C18.75 0.7654 18.6403 0.500448 18.4449 0.305097C18.2496 0.109747 17.9846 0 17.7083 0C17.4321 0 17.1671 0.109747 16.9718 0.305097C16.7764 0.500448 16.6667 0.7654 16.6667 1.04167V2.08333H8.33333V1.04167C8.33333 0.7654 8.22359 0.500448 8.02824 0.305097C7.83289 0.109747 7.56793 0 7.29167 0C7.0154 0 6.75045 0.109747 6.5551 0.305097C6.35975 0.500448 6.25 0.7654 6.25 1.04167V2.08333H5.20833C3.82751 2.08499 2.50371 2.63425 1.52731 3.61065C0.550919 4.58704 0.00165402 5.91084 0 7.29167L0 8.33333H25V7.29167C24.9983 5.91084 24.4491 4.58704 23.4727 3.61065C22.4963 2.63425 21.1725 2.08499 19.7917 2.08333Z" fill="#0E6D62"/>
</g>
<defs>
<clipPath id="clip0_85_233">
<rect width="25" height="25" fill="white"/>
</clipPath>
</defs>
</svg>
