<svg width="25" height="25" viewBox="0 0 25 25" fill="none" xmlns="http://www.w3.org/2000/svg">
<g clip-path="url(#clip0_85_290)">
<path d="M15.625 18.75H25V9.375C25 7.5208 24.4502 5.70824 23.42 4.16653C22.3899 2.62482 20.9257 1.42321 19.2127 0.713634C17.4996 0.00406206 15.6146 -0.181594 13.796 0.180142C11.9775 0.541879 10.307 1.43476 8.99587 2.74588C7.68476 4.057 6.79187 5.72746 6.43014 7.54603C6.0684 9.3646 6.25406 11.2496 6.96363 12.9627C7.6732 14.6757 8.87482 16.1399 10.4165 17.17C11.9582 18.2002 13.7708 18.75 15.625 18.75ZM4.16667 9.45834C4.19063 12.4678 5.39676 15.3471 7.52481 17.4752C9.65287 19.6032 12.5322 20.8094 15.5417 20.8333C14.811 22.0989 13.7604 23.1501 12.4952 23.8814C11.23 24.6127 9.79469 24.9985 8.33333 25H0V16.6667C0.00149918 15.2053 0.387264 13.77 1.11859 12.5048C1.84992 11.2397 2.90109 10.189 4.16667 9.45834Z" fill="#0E6D62"/>
</g>
<defs>
<clipPath id="clip0_85_290">
<rect width="25" height="25" fill="white" transform="matrix(-1 0 0 1 25 0)"/>
</clipPath>
</defs>
</svg>
