<svg width="25" height="25" viewBox="0 0 25 25" fill="none" xmlns="http://www.w3.org/2000/svg">
<g clip-path="url(#clip0_85_229)">
<path d="M9.375 18.75H0V9.375C0 7.5208 0.549834 5.70824 1.57997 4.16653C2.61011 2.62482 4.07429 1.42321 5.78734 0.713634C7.5004 0.00406206 9.3854 -0.181594 11.204 0.180142C13.0225 0.541879 14.693 1.43476 16.0041 2.74588C17.3152 4.057 18.2081 5.72746 18.5699 7.54603C18.9316 9.3646 18.7459 11.2496 18.0364 12.9627C17.3268 14.6757 16.1252 16.1399 14.5835 17.17C13.0418 18.2002 11.2292 18.75 9.375 18.75ZM20.8333 9.45834C20.8094 12.4678 19.6032 15.3471 17.4752 17.4752C15.3471 19.6032 12.4678 20.8094 9.45833 20.8333C10.189 22.0989 11.2396 23.1501 12.5048 23.8814C13.77 24.6127 15.2053 24.9985 16.6667 25H25V16.6667C24.9985 15.2053 24.6127 13.77 23.8814 12.5048C23.1501 11.2397 22.0989 10.189 20.8333 9.45834Z" fill="#0E6D62"/>
</g>
<defs>
<clipPath id="clip0_85_229">
<rect width="25" height="25" fill="white"/>
</clipPath>
</defs>
</svg>
