<svg width="35" height="35" viewBox="0 0 35 35" fill="none" xmlns="http://www.w3.org/2000/svg">
<g clip-path="url(#clip0_134_399)">
<path d="M13.125 26.25H0V13.125C0 10.5291 0.769768 7.99154 2.21196 5.83315C3.65416 3.67475 5.704 1.99249 8.10228 0.999087C10.5006 0.00568688 13.1396 -0.254232 15.6856 0.252199C18.2316 0.75863 20.5702 2.00867 22.4058 3.84423C24.2413 5.67979 25.4914 8.01844 25.9978 10.5644C26.5042 13.1104 26.2443 15.7494 25.2509 18.1477C24.2575 20.546 22.5753 22.5959 20.4169 24.038C18.2585 25.4802 15.7209 26.25 13.125 26.25ZM29.1667 13.2417C29.1331 17.4549 27.4445 21.486 24.4653 24.4653C21.486 27.4445 17.4549 29.1331 13.2417 29.1667C14.2646 30.9385 15.7355 32.4101 17.5068 33.434C19.2781 34.4578 21.2874 34.9979 23.3333 35H35V23.3333C34.9979 21.2874 34.4578 19.2781 33.434 17.5068C32.4101 15.7355 30.9385 14.2646 29.1667 13.2417Z" fill="#007FB1"/>
</g>
<defs>
<clipPath id="clip0_134_399">
<rect width="35" height="35" fill="white"/>
</clipPath>
</defs>
</svg>
