<svg width="25" height="25" viewBox="0 0 25 25" fill="none" xmlns="http://www.w3.org/2000/svg">
<g clip-path="url(#clip0_85_245)">
<path d="M0 16.6667V25H8.33333C9.79469 24.9985 11.23 24.6127 12.4952 23.8814C13.7604 23.1501 14.811 22.0989 15.5417 20.8333C14.7564 20.8277 13.9738 20.7411 13.2063 20.575C12.6217 21.3059 11.8802 21.8959 11.0367 22.3012C10.1931 22.7066 9.26921 22.9169 8.33333 22.9167H2.08333V16.6667C2.08358 15.7305 2.29457 14.8063 2.70066 13.9627C3.10675 13.1192 3.69752 12.3779 4.42917 11.7937C4.26162 11.0264 4.17366 10.2438 4.16667 9.45833C2.90109 10.189 1.84992 11.2396 1.11859 12.5048C0.387264 13.77 0.00149918 15.2053 0 16.6667ZM6.25 9.375C6.25 6.8886 7.23772 4.50403 8.99587 2.74587C10.754 0.98772 13.1386 0 15.625 0C18.1114 0 20.496 0.98772 22.2541 2.74587C24.0123 4.50403 25 6.8886 25 9.375V18.75H15.625C13.1394 18.7472 10.7565 17.7586 8.99892 16.0011C7.24136 14.2435 6.25276 11.8606 6.25 9.375ZM22.9167 9.375C22.9167 7.93284 22.489 6.52308 21.6878 5.32397C20.8866 4.12486 19.7478 3.19027 18.4154 2.63838C17.083 2.08649 15.6169 1.94209 14.2025 2.22344C12.788 2.50479 11.4888 3.19925 10.469 4.21901C9.44926 5.23877 8.75479 6.53802 8.47344 7.95247C8.19209 9.36691 8.33649 10.833 8.88838 12.1654C9.44027 13.4978 10.3749 14.6366 11.574 15.4378C12.7731 16.239 14.1828 16.6667 15.625 16.6667H22.9167V9.375Z" fill="#0E6D62"/>
</g>
<defs>
<clipPath id="clip0_85_245">
<rect width="25" height="25" fill="white" transform="matrix(-1 0 0 1 25 0)"/>
</clipPath>
</defs>
</svg>
