<svg width="15" height="13" viewBox="0 0 15 13" fill="none" xmlns="http://www.w3.org/2000/svg">
<g clip-path="url(#clip0_83_754)">
<path d="M7.5 0.541667V3.79167C7.49909 4.41578 7.24994 5.02054 6.79455 5.50401C6.33916 5.98749 5.70537 6.32011 5 6.44583V12.4583C5 12.602 4.93415 12.7398 4.81694 12.8414C4.69973 12.9429 4.54076 13 4.375 13C4.20924 13 4.05027 12.9429 3.93306 12.8414C3.81585 12.7398 3.75 12.602 3.75 12.4583V6.44583C3.04463 6.32011 2.41084 5.98749 1.95545 5.50401C1.50006 5.02054 1.25091 4.41578 1.25 3.79167V0.541667C1.25 0.398008 1.31585 0.260233 1.43306 0.158651C1.55027 0.0570683 1.70924 0 1.875 0C2.04076 0 2.19973 0.0570683 2.31694 0.158651C2.43415 0.260233 2.5 0.398008 2.5 0.541667V3.79167C2.5016 4.12656 2.62255 4.45284 2.8463 4.72588C3.07006 4.99892 3.38568 5.20537 3.75 5.317V0.541667C3.75 0.398008 3.81585 0.260233 3.93306 0.158651C4.05027 0.0570683 4.20924 0 4.375 0C4.54076 0 4.69973 0.0570683 4.81694 0.158651C4.93415 0.260233 5 0.398008 5 0.541667V5.317C5.36432 5.20537 5.67994 4.99892 5.9037 4.72588C6.12745 4.45284 6.2484 4.12656 6.25 3.79167V0.541667C6.25 0.398008 6.31585 0.260233 6.43306 0.158651C6.55027 0.0570683 6.70924 0 6.875 0C7.04076 0 7.19973 0.0570683 7.31694 0.158651C7.43415 0.260233 7.5 0.398008 7.5 0.541667ZM13.75 5.41667C13.722 6.44607 13.4265 7.45676 12.8855 8.37349C12.3444 9.29021 11.5718 10.0894 10.625 10.7115V12.4583C10.625 12.602 10.5592 12.7398 10.4419 12.8414C10.3247 12.9429 10.1658 13 10 13C9.83424 13 9.67527 12.9429 9.55806 12.8414C9.44085 12.7398 9.375 12.602 9.375 12.4583V1.08333C9.3694 0.879809 9.43356 0.679416 9.55939 0.507503C9.68521 0.33559 9.86704 0.199881 10.0819 0.117542C10.3287 0.0305312 10.5993 0.007708 10.8608 0.0518614C11.1223 0.0960148 11.3633 0.205232 11.5544 0.366167C13.004 1.74468 13.7896 3.55187 13.75 5.41667ZM12.5 5.41667C12.5177 3.83075 11.8487 2.29671 10.625 1.11746V9.24625C11.7963 8.22696 12.468 6.85495 12.5 5.41667Z" fill="#0E6D62"/>
</g>
<defs>
<clipPath id="clip0_83_754">
<rect width="15" height="13" fill="white"/>
</clipPath>
</defs>
</svg>
