<svg width="70" height="63" viewBox="0 0 70 63" fill="none" xmlns="http://www.w3.org/2000/svg">
<path d="M67.3167 42.7125L43.75 5.49582C41.7667 2.63749 38.4709 0.916656 35 0.916656C31.5292 0.916656 28.2334 2.60832 26.1625 5.58332L2.71252 42.6542C-0.262483 46.9125 -0.81665 52.0167 1.25418 55.9542C3.29585 59.8917 7.58335 62.1375 12.95 62.1375H57.05C62.4459 62.1375 66.7042 59.8917 68.7459 55.9542C70.7875 52.0167 70.2334 46.9417 67.3167 42.7125ZM32.0834 18.4167C32.0834 16.8125 33.3959 15.5 35 15.5C36.6042 15.5 37.9167 16.8125 37.9167 18.4167V35.9167C37.9167 37.5208 36.6042 38.8333 35 38.8333C33.3959 38.8333 32.0834 37.5208 32.0834 35.9167V18.4167ZM35 53.4167C32.5792 53.4167 30.625 51.4625 30.625 49.0417C30.625 46.6208 32.5792 44.6667 35 44.6667C37.4209 44.6667 39.375 46.6208 39.375 49.0417C39.375 51.4625 37.4209 53.4167 35 53.4167Z" fill="#CC3F3F"/>
</svg>
