<svg width="25" height="25" viewBox="0 0 25 25" fill="none" xmlns="http://www.w3.org/2000/svg">
<g clip-path="url(#clip0_85_254)">
<path d="M13.8938 0.867695C13.5112 0.523357 13.0147 0.332825 12.5 0.332825C11.9853 0.332825 11.4888 0.523357 11.1062 0.867695L0 10.8635V21.6969C0 22.5809 0.351189 23.4288 0.976311 24.0539C1.60143 24.679 2.44928 25.0302 3.33333 25.0302H21.6667C22.5507 25.0302 23.3986 24.679 24.0237 24.0539C24.6488 23.4288 25 22.5809 25 21.6969V10.8635L13.8938 0.867695ZM15.625 22.9437H9.375V17.7083C9.375 16.8795 9.70424 16.0847 10.2903 15.4986C10.8763 14.9126 11.6712 14.5833 12.5 14.5833C13.3288 14.5833 14.1237 14.9126 14.7097 15.4986C15.2958 16.0847 15.625 16.8795 15.625 17.7083V22.9437ZM22.9167 21.6937C22.9167 22.0253 22.785 22.3432 22.5506 22.5776C22.3161 22.812 21.9982 22.9437 21.6667 22.9437H17.7083V17.7083C17.7083 16.327 17.1596 15.0022 16.1828 14.0255C15.2061 13.0487 13.8813 12.5 12.5 12.5C11.1187 12.5 9.7939 13.0487 8.81715 14.0255C7.8404 15.0022 7.29167 16.327 7.29167 17.7083V22.9437H3.33333C3.00181 22.9437 2.68387 22.812 2.44945 22.5776C2.21503 22.3432 2.08333 22.0253 2.08333 21.6937V11.7906L12.5 2.41561L22.9167 11.7906V21.6937Z" fill="#0E6D62"/>
</g>
<defs>
<clipPath id="clip0_85_254">
<rect width="25" height="25" fill="white"/>
</clipPath>
</defs>
</svg>
