<svg width="35" height="35" viewBox="0 0 35 35" fill="none" xmlns="http://www.w3.org/2000/svg">
<path d="M17.5 21.8668C19.9162 21.8668 21.875 23.8268 21.875 26.2445V35H13.125V26.2445C13.125 23.8268 15.0838 21.8668 17.5 21.8668Z" fill="#007FB1"/>
<path d="M10.2083 26.2445V35H4.375C1.95877 35 0 33.04 0 30.6223V17.3125C-0.000343323 16.5545 0.294083 15.826 0.821064 15.2813L13.2139 1.87519C15.4006 -0.492207 19.0912 -0.637561 21.4571 1.55048C21.5695 1.65445 21.6778 1.76273 21.7816 1.87519L34.1527 15.2769C34.6956 15.8238 35.0002 16.5635 35 17.3344V30.6223C35 33.04 33.0412 35 30.625 35H24.7917V26.2445C24.7644 22.2655 21.5538 19.0161 17.6773 18.9225C13.6712 18.8258 10.2389 22.1305 10.2083 26.2445Z" fill="#007FB1"/>
<path d="M17.5 21.8668C19.9162 21.8668 21.875 23.8268 21.875 26.2445V35H13.125V26.2445C13.125 23.8268 15.0838 21.8668 17.5 21.8668Z" fill="#007FB1"/>
</svg>
