<svg width="25" height="25" viewBox="0 0 25 25" fill="none" xmlns="http://www.w3.org/2000/svg">
<g clip-path="url(#clip0_85_231)">
<path d="M23.9583 16.6667C23.7971 16.6667 23.6381 16.6292 23.4938 16.5573L21.4104 15.5156C21.1632 15.3921 20.9751 15.1755 20.8876 14.9133C20.8001 14.6512 20.8203 14.365 20.9438 14.1177C21.0672 13.8704 21.2839 13.6824 21.5461 13.5949C21.8082 13.5073 22.0944 13.5275 22.3417 13.651L24.425 14.6927C24.6353 14.7975 24.8039 14.9703 24.9036 15.1831C25.0033 15.3958 25.0281 15.636 24.9741 15.8647C24.92 16.0933 24.7903 16.297 24.6059 16.4425C24.4215 16.5881 24.1933 16.6671 23.9583 16.6667ZM22.3406 7.1875L24.424 6.14583C24.6712 6.02234 24.8593 5.80569 24.9468 5.54352C25.0343 5.28136 25.0141 4.99518 24.8906 4.74792C24.7671 4.50066 24.5505 4.31258 24.2883 4.22507C24.0262 4.13755 23.74 4.15776 23.4927 4.28125L21.4094 5.32292C21.1621 5.44641 20.974 5.66306 20.8865 5.92522C20.799 6.18739 20.8192 6.47357 20.9427 6.72083C21.0662 6.96809 21.2829 7.15617 21.545 7.24368C21.8072 7.3312 22.0934 7.31099 22.3406 7.1875ZM25 10.4167C25 10.1404 24.8903 9.87545 24.6949 9.6801C24.4996 9.48475 24.2346 9.375 23.9583 9.375H21.875C21.5987 9.375 21.3338 9.48475 21.1384 9.6801C20.9431 9.87545 20.8333 10.1404 20.8333 10.4167C20.8333 10.6929 20.9431 10.9579 21.1384 11.1532C21.3338 11.3486 21.5987 11.4583 21.875 11.4583H23.9583C24.2346 11.4583 24.4996 11.3486 24.6949 11.1532C24.8903 10.9579 25 10.6929 25 10.4167ZM18.75 19.7917V1.04167C18.75 0.765399 18.6403 0.500448 18.4449 0.305097C18.2496 0.109747 17.9846 0 17.7083 0C17.4321 0 17.1671 0.109747 16.9718 0.305097C16.7764 0.500448 16.6667 0.765399 16.6667 1.04167C16.6667 4.11354 13.976 5.20833 11.4583 5.20833H4.16667C3.0616 5.20833 2.00179 5.64732 1.22039 6.42872C0.438987 7.21012 0 8.26993 0 9.375L0 11.4583C0 12.5634 0.438987 13.6232 1.22039 14.4046C2.00179 15.186 3.0616 15.625 4.16667 15.625H11.4583C13.976 15.625 16.6667 16.7198 16.6667 19.7917C16.6667 20.0679 16.7764 20.3329 16.9718 20.5282C17.1671 20.7236 17.4321 20.8333 17.7083 20.8333C17.9846 20.8333 18.2496 20.7236 18.4449 20.5282C18.6403 20.3329 18.75 20.0679 18.75 19.7917ZM8.52708 17.7083H4.16667C3.68168 17.7064 3.19857 17.648 2.72708 17.5344L5.33125 23.349C5.54996 23.8404 5.90644 24.2579 6.35754 24.5509C6.80863 24.844 7.335 24.9999 7.87292 25C8.30089 24.9994 8.72191 24.8918 9.09762 24.6868C9.47333 24.4819 9.79177 24.1862 10.0239 23.8266C10.2561 23.4671 10.3946 23.0552 10.4268 22.6284C10.459 22.2017 10.3839 21.7736 10.2083 21.3833L8.52708 17.7083Z" fill="#0E6D62"/>
</g>
<defs>
<clipPath id="clip0_85_231">
<rect width="25" height="25" fill="white"/>
</clipPath>
</defs>
</svg>
