<svg width="25" height="25" viewBox="0 0 25 25" fill="none" xmlns="http://www.w3.org/2000/svg">
<g clip-path="url(#clip0_85_248)">
<path d="M12.5 12.5C11.6759 12.5 10.8704 12.2556 10.1852 11.7978C9.49995 11.3399 8.96589 10.6892 8.65053 9.92782C8.33517 9.16647 8.25265 8.32869 8.41342 7.52043C8.57419 6.71218 8.97103 5.96975 9.55375 5.38703C10.1365 4.80431 10.8789 4.40748 11.6872 4.2467C12.4954 4.08593 13.3332 4.16845 14.0945 4.48381C14.8559 4.79918 15.5066 5.33323 15.9645 6.01843C16.4223 6.70364 16.6667 7.50922 16.6667 8.33331C16.6667 9.43838 16.2277 10.4982 15.4463 11.2796C14.6649 12.061 13.6051 12.5 12.5 12.5ZM12.5 6.24998C12.088 6.24998 11.6852 6.37216 11.3426 6.60108C11 6.83 10.733 7.15537 10.5753 7.53605C10.4176 7.91673 10.3763 8.33562 10.4567 8.73975C10.5371 9.14388 10.7355 9.51509 11.0269 9.80645C11.3182 10.0978 11.6895 10.2962 12.0936 10.3766C12.4977 10.457 12.9166 10.4157 13.2973 10.2581C13.678 10.1004 14.0033 9.83335 14.2323 9.49075C14.4612 9.14815 14.5834 8.74535 14.5834 8.33331C14.5834 7.78078 14.3639 7.25087 13.9732 6.86017C13.5825 6.46947 13.0526 6.24998 12.5 6.24998ZM8.33336 22.9479L2.67029e-05 24.9771V14.0448C0.000247955 13.3738 0.216417 12.7207 0.61656 12.1821C1.0167 11.6436 1.57957 11.2481 2.2219 11.0541L4.4094 10.325C4.24945 9.67525 4.16796 9.00869 4.16669 8.33956C4.16669 6.12942 5.04467 4.00981 6.60747 2.447C8.17027 0.884199 10.2899 0.00622559 12.5 0.00622559C14.7102 0.00622559 16.8298 0.884199 18.3926 2.447C19.9554 4.00981 20.8334 6.12942 20.8334 8.33956C20.8303 8.76241 20.7955 9.18443 20.7292 9.60206C21.2022 9.41347 21.7143 9.34367 22.2206 9.39877C22.7269 9.45387 23.2119 9.63219 23.6333 9.91813C24.0547 10.2041 24.3996 10.5889 24.6379 11.039C24.8762 11.4891 25.0005 11.9907 25 12.5V22.6583L16.6844 25.0344L8.33336 22.9479ZM16.9198 3.92081C15.7456 2.76326 14.1615 2.11661 12.5127 2.12173C10.8639 2.12684 9.28386 2.7833 8.11685 3.94811C6.94984 5.11292 6.2904 6.6917 6.28217 8.34053C6.27395 9.98935 6.91761 11.5746 8.07294 12.751L12.5 17.0833L16.9198 12.7594C18.0918 11.5873 18.7503 9.99761 18.7503 8.34008C18.7503 6.68255 18.0918 5.0929 16.9198 3.92081ZM22.9167 12.5C22.918 12.3282 22.8762 12.1588 22.795 12.0074C22.7138 11.8559 22.5959 11.7273 22.4521 11.6333C22.3017 11.5346 22.1284 11.4762 21.9489 11.4638C21.7694 11.4514 21.5897 11.4854 21.4271 11.5625L19.9334 12.1021C19.5337 12.8935 19.0109 13.6164 18.3844 14.2437L12.5 20L6.60732 14.2364C6.02789 13.6578 5.53655 12.9973 5.14899 12.276L2.83961 13.0479C2.6221 13.1101 2.43075 13.2414 2.2945 13.422C2.15825 13.6026 2.0845 13.8227 2.0844 14.0489V22.3291L8.33336 20.8021L16.6459 22.8854L22.9167 21.0896V12.5Z" fill="#0E6D62"/>
</g>
<defs>
<clipPath id="clip0_85_248">
<rect width="25" height="25" fill="white" transform="matrix(-1 0 0 1 25 0)"/>
</clipPath>
</defs>
</svg>
