<svg width="25" height="25" viewBox="0 0 25 25" fill="none" xmlns="http://www.w3.org/2000/svg">
<g clip-path="url(#clip0_85_227)">
<path d="M14.5833 7.29166C14.5833 7.7037 14.4611 8.1065 14.2322 8.4491C14.0033 8.7917 13.6779 9.05873 13.2972 9.21641C12.9166 9.37409 12.4977 9.41535 12.0935 9.33496C11.6894 9.25458 11.3182 9.05616 11.0268 8.7648C10.7355 8.47344 10.5371 8.10223 10.4567 7.6981C10.3763 7.29397 10.4176 6.87508 10.5752 6.4944C10.7329 6.11372 10.9999 5.78835 11.3425 5.55943C11.6851 5.33051 12.0879 5.20833 12.5 5.20833C13.0525 5.20833 13.5824 5.42782 13.9731 5.81852C14.3638 6.20922 14.5833 6.73913 14.5833 7.29166ZM17.6562 12.4552L12.5 17.5L7.35207 12.4625C6.33038 11.444 5.63377 10.1453 5.35038 8.73082C5.06699 7.3163 5.20956 5.84951 5.76005 4.51604C6.31053 3.18257 7.24419 2.04236 8.44289 1.23969C9.64159 0.437012 11.0515 0.00794399 12.4941 0.00677729C13.9367 0.00561059 15.3473 0.432397 16.5473 1.23313C17.7472 2.03387 18.6828 3.17257 19.2354 4.50514C19.788 5.83772 19.933 7.30428 19.6519 8.71925C19.3708 10.1342 18.6763 11.4351 17.6562 12.4552ZM16.6666 7.29166C16.6666 6.46757 16.4223 5.66199 15.9644 4.97678C15.5066 4.29158 14.8559 3.75753 14.0945 3.44216C13.3331 3.1268 12.4954 3.04428 11.6871 3.20505C10.8789 3.36583 10.1364 3.76266 9.5537 4.34538C8.97098 4.9281 8.57415 5.67053 8.41338 6.47878C8.2526 7.28704 8.33512 8.12482 8.65048 8.88618C8.96585 9.64753 9.4999 10.2983 10.1851 10.7561C10.8703 11.214 11.6759 11.4583 12.5 11.4583C13.6051 11.4583 14.6649 11.0193 15.4463 10.2379C16.2277 9.45654 16.6666 8.39673 16.6666 7.29166ZM22.7781 11.0552L21.2833 10.5552C20.8181 11.8226 20.0831 12.9738 19.1291 13.9292L12.5 20.4167L5.89581 13.9583C4.64216 12.7093 3.76812 11.1306 3.37498 9.4052C2.94554 9.36567 2.51258 9.41643 2.10393 9.5542C1.69527 9.69197 1.31996 9.91371 1.00211 10.2052C0.684256 10.4966 0.430897 10.8514 0.258311 11.2466C0.0857246 11.6418 -0.00227015 12.0687 -1.89053e-05 12.5V22.6583L8.31561 25.0344L16.6698 22.951L25.0031 24.9802V14.0448C25.0027 13.3734 24.7861 12.72 24.3853 12.1814C23.9846 11.6428 23.421 11.2486 22.7781 11.0552Z" fill="#0E6D62"/>
</g>
<defs>
<clipPath id="clip0_85_227">
<rect width="25" height="25" fill="white"/>
</clipPath>
</defs>
</svg>
