<svg width="35" height="35" viewBox="0 0 35 35" fill="none" xmlns="http://www.w3.org/2000/svg">
<g clip-path="url(#clip0_134_401)">
<path d="M33.5417 23.3333C33.3159 23.3333 33.0933 23.2809 32.8913 23.1802L29.9746 21.7219C29.6284 21.549 29.3651 21.2457 29.2426 20.8786C29.1201 20.5116 29.1484 20.111 29.3213 19.7648C29.4941 19.4186 29.7975 19.1553 30.1645 19.0328C30.5315 18.9103 30.9322 18.9386 31.2783 19.1115L34.195 20.5698C34.4894 20.7165 34.7255 20.9584 34.8651 21.2563C35.0046 21.5541 35.0394 21.8904 34.9637 22.2105C34.888 22.5306 34.7064 22.8157 34.4482 23.0196C34.1901 23.2234 33.8706 23.334 33.5417 23.3333ZM31.2769 10.0625L34.1935 8.60417C34.5397 8.43128 34.803 8.12796 34.9255 7.76094C35.0481 7.39391 35.0198 6.99325 34.8469 6.64708C34.674 6.30092 34.3707 6.03762 34.0036 5.91509C33.6366 5.79257 33.236 5.82086 32.8898 5.99375L29.9731 7.45208C29.627 7.62497 29.3637 7.92829 29.2411 8.29532C29.1186 8.66234 29.1469 9.063 29.3198 9.40917C29.4927 9.75533 29.796 10.0186 30.163 10.1412C30.53 10.2637 30.9307 10.2354 31.2769 10.0625ZM35 14.5833C35 14.1966 34.8464 13.8256 34.5729 13.5521C34.2994 13.2786 33.9284 13.125 33.5417 13.125H30.625C30.2382 13.125 29.8673 13.2786 29.5938 13.5521C29.3203 13.8256 29.1667 14.1966 29.1667 14.5833C29.1667 14.9701 29.3203 15.341 29.5938 15.6145C29.8673 15.888 30.2382 16.0417 30.625 16.0417H33.5417C33.9284 16.0417 34.2994 15.888 34.5729 15.6145C34.8464 15.341 35 14.9701 35 14.5833ZM26.25 27.7083V1.45833C26.25 1.07156 26.0964 0.700627 25.8229 0.427136C25.5494 0.153645 25.1784 0 24.7917 0C24.4049 0 24.034 0.153645 23.7605 0.427136C23.487 0.700627 23.3333 1.07156 23.3333 1.45833C23.3333 5.75896 19.5665 7.29167 16.0417 7.29167H5.83333C4.28624 7.29167 2.80251 7.90625 1.70854 9.00021C0.614582 10.0942 0 11.5779 0 13.125L0 16.0417C0 17.5888 0.614582 19.0725 1.70854 20.1665C2.80251 21.2604 4.28624 21.875 5.83333 21.875H16.0417C19.5665 21.875 23.3333 23.4077 23.3333 27.7083C23.3333 28.0951 23.487 28.466 23.7605 28.7395C24.034 29.013 24.4049 29.1667 24.7917 29.1667C25.1784 29.1667 25.5494 29.013 25.8229 28.7395C26.0964 28.466 26.25 28.0951 26.25 27.7083ZM11.9379 24.7917H5.83333C5.15435 24.789 4.478 24.7072 3.81792 24.5481L7.46375 32.6885C7.76995 33.3766 8.26902 33.9611 8.90055 34.3713C9.53209 34.7816 10.269 34.9999 11.0221 35C11.6212 34.9992 12.2107 34.8485 12.7367 34.5615C13.2627 34.2746 13.7085 33.8606 14.0335 33.3573C14.3585 32.8539 14.5524 32.2773 14.5975 31.6798C14.6426 31.0823 14.5375 30.4831 14.2917 29.9367L11.9379 24.7917Z" fill="#007FB1"/>
</g>
<defs>
<clipPath id="clip0_134_401">
<rect width="35" height="35" fill="white"/>
</clipPath>
</defs>
</svg>
