<svg width="45" height="45" viewBox="0 0 45 45" fill="none" xmlns="http://www.w3.org/2000/svg">
<rect x="1" y="1" width="43" height="43" rx="21.5" stroke="white" stroke-width="2"/>
<g clip-path="url(#clip0_87_684)">
<path d="M29.7917 13.1667H29.2625L26.9875 10.2167C26.6943 9.83938 26.3191 9.53377 25.8903 9.32297C25.4615 9.11218 24.9903 9.00173 24.5125 9H20.4875C20.0097 9.00173 19.5385 9.11218 19.1097 9.32297C18.6809 9.53377 18.3057 9.83938 18.0125 10.2167L15.7375 13.1667H15.2083C13.8275 13.1683 12.5037 13.7176 11.5273 14.694C10.5509 15.6704 10.0017 16.9942 10 18.375V28.7917C10.0017 30.1725 10.5509 31.4963 11.5273 32.4727C12.5037 33.4491 13.8275 33.9983 15.2083 34H29.7917C31.1725 33.9983 32.4963 33.4491 33.4727 32.4727C34.4491 31.4963 34.9983 30.1725 35 28.7917V18.375C34.9983 16.9942 34.4491 15.6704 33.4727 14.694C32.4963 13.7176 31.1725 13.1683 29.7917 13.1667ZM19.6625 11.4896C19.7601 11.3636 19.8851 11.2615 20.0281 11.1911C20.171 11.1207 20.3281 11.0839 20.4875 11.0833H24.5125C24.6718 11.084 24.8289 11.121 24.9718 11.1913C25.1148 11.2617 25.2398 11.3637 25.3375 11.4896L26.6312 13.1667H18.3687L19.6625 11.4896ZM32.9167 28.7917C32.9167 29.6205 32.5874 30.4153 32.0014 31.0014C31.4153 31.5874 30.6205 31.9167 29.7917 31.9167H15.2083C14.3795 31.9167 13.5847 31.5874 12.9986 31.0014C12.4126 30.4153 12.0833 29.6205 12.0833 28.7917V18.375C12.0833 17.5462 12.4126 16.7513 12.9986 16.1653C13.5847 15.5792 14.3795 15.25 15.2083 15.25H29.7917C30.6205 15.25 31.4153 15.5792 32.0014 16.1653C32.5874 16.7513 32.9167 17.5462 32.9167 18.375V28.7917Z" fill="white"/>
<path d="M22.5 17.3333C21.2639 17.3333 20.0555 17.6999 19.0277 18.3866C17.9999 19.0734 17.1988 20.0495 16.7258 21.1915C16.2527 22.3336 16.1289 23.5902 16.3701 24.8026C16.6113 26.015 17.2065 27.1287 18.0806 28.0027C18.9547 28.8768 20.0683 29.4721 21.2807 29.7132C22.4931 29.9544 23.7497 29.8306 24.8918 29.3576C26.0338 28.8845 27.0099 28.0834 27.6967 27.0556C28.3834 26.0278 28.75 24.8194 28.75 23.5833C28.7483 21.9262 28.0893 20.3375 26.9176 19.1657C25.7458 17.994 24.1571 17.335 22.5 17.3333ZM22.5 27.75C21.6759 27.75 20.8703 27.5056 20.1851 27.0478C19.4999 26.5899 18.9659 25.9392 18.6505 25.1778C18.3351 24.4165 18.2526 23.5787 18.4134 22.7704C18.5742 21.9622 18.971 21.2198 19.5537 20.637C20.1364 20.0543 20.8789 19.6575 21.6871 19.4967C22.4954 19.3359 23.3332 19.4184 24.0945 19.7338C24.8559 20.0492 25.5066 20.5832 25.9645 21.2684C26.4223 21.9536 26.6667 22.7592 26.6667 23.5833C26.6667 24.6884 26.2277 25.7482 25.4463 26.5296C24.6649 27.311 23.6051 27.75 22.5 27.75Z" fill="white"/>
</g>
<defs>
<clipPath id="clip0_87_684">
<rect width="25" height="25" fill="white" transform="translate(10 9)"/>
</clipPath>
</defs>
</svg>
