<svg width="97" height="97" viewBox="0 0 97 97" fill="none" xmlns="http://www.w3.org/2000/svg">
<circle cx="48.0276" cy="48.0276" r="48.0276" fill="#0E6D62"/>
<g clip-path="url(#clip0_83_244)">
<path d="M48.0137 48.988C50.3885 48.988 52.7099 48.2839 54.6844 46.9645C56.6589 45.6452 58.1979 43.77 59.1067 41.576C60.0154 39.382 60.2532 36.9678 59.7899 34.6387C59.3266 32.3096 58.1831 30.1702 56.5039 28.491C54.8247 26.8118 52.6853 25.6682 50.3562 25.205C48.0271 24.7417 45.6129 24.9794 43.4189 25.8882C41.2249 26.797 39.3497 28.3359 38.0304 30.3105C36.711 32.285 36.0068 34.6064 36.0068 36.9811C36.01 40.1646 37.276 43.2168 39.5271 45.4678C41.7781 47.7188 44.8303 48.9849 48.0137 48.988ZM48.0137 28.9765C49.5969 28.9765 51.1445 29.446 52.4608 30.3256C53.7772 31.2051 54.8032 32.4553 55.409 33.9179C56.0149 35.3806 56.1734 36.99 55.8645 38.5428C55.5557 40.0955 54.7933 41.5218 53.6738 42.6413C52.5544 43.7607 51.1281 44.5231 49.5754 44.8319C48.0226 45.1408 46.4132 44.9823 44.9505 44.3764C43.4879 43.7706 42.2377 42.7446 41.3582 41.4283C40.4786 40.1119 40.0091 38.5643 40.0091 36.9811C40.0091 34.8582 40.8525 32.8222 42.3536 31.321C43.8548 29.8199 45.8908 28.9765 48.0137 28.9765Z" fill="white"/>
<path d="M48.0138 52.9905C43.2387 52.9958 38.6608 54.895 35.2844 58.2714C31.9079 61.6479 30.0087 66.2258 30.0034 71.0008C30.0034 71.5316 30.2143 72.0406 30.5895 72.4159C30.9648 72.7911 31.4738 73.002 32.0046 73.002C32.5353 73.002 33.0443 72.7911 33.4196 72.4159C33.7949 72.0406 34.0057 71.5316 34.0057 71.0008C34.0057 67.2857 35.4816 63.7227 38.1086 61.0956C40.7356 58.4686 44.2986 56.9928 48.0138 56.9928C51.7289 56.9928 55.2919 58.4686 57.9189 61.0956C60.546 63.7227 62.0218 67.2857 62.0218 71.0008C62.0218 71.5316 62.2326 72.0406 62.6079 72.4159C62.9832 72.7911 63.4922 73.002 64.023 73.002C64.5537 73.002 65.0627 72.7911 65.438 72.4159C65.8133 72.0406 66.0241 71.5316 66.0241 71.0008C66.0188 66.2258 64.1196 61.6479 60.7432 58.2714C57.3667 54.895 52.7888 52.9958 48.0138 52.9905Z" fill="white"/>
</g>
<defs>
<clipPath id="clip0_83_244">
<rect width="48.0276" height="48.0276" fill="white" transform="translate(24 24.9744)"/>
</clipPath>
</defs>
</svg>
