<svg width="8" height="8" viewBox="0 0 8 8" fill="none" xmlns="http://www.w3.org/2000/svg">
<g clip-path="url(#clip0_84_810)">
<path d="M2.33331 7.99999C2.28944 8.00025 2.24596 7.99184 2.20534 7.97525C2.16473 7.95866 2.12779 7.93422 2.09665 7.90332C2.0654 7.87234 2.04061 7.83547 2.02368 7.79485C2.00676 7.75423 1.99805 7.71066 1.99805 7.66666C1.99805 7.62265 2.00676 7.57909 2.02368 7.53847C2.04061 7.49785 2.0654 7.46098 2.09665 7.42999L4.81998 4.70666C5.00725 4.51916 5.11243 4.26499 5.11243 3.99999C5.11243 3.73499 5.00725 3.48082 4.81998 3.29332L2.09665 0.569991C2.03388 0.507223 1.99862 0.422091 1.99862 0.333324C1.99862 0.244557 2.03388 0.159425 2.09665 0.0966573C2.15941 0.0338893 2.24455 -0.00137329 2.33331 -0.00137329C2.42208 -0.00137329 2.50721 0.0338893 2.56998 0.0966573L5.29331 2.81999C5.44852 2.97481 5.57167 3.15873 5.65569 3.36121C5.73971 3.5637 5.78296 3.78077 5.78296 3.99999C5.78296 4.21922 5.73971 4.43629 5.65569 4.63877C5.57167 4.84125 5.44852 5.02517 5.29331 5.17999L2.56998 7.90332C2.53883 7.93422 2.50189 7.95866 2.46128 7.97525C2.42067 7.99184 2.37718 8.00025 2.33331 7.99999Z" fill="#61BAB0"/>
</g>
<defs>
<clipPath id="clip0_84_810">
<rect width="8" height="8" fill="white"/>
</clipPath>
</defs>
</svg>
