<svg width="35" height="35" viewBox="0 0 35 35" fill="none" xmlns="http://www.w3.org/2000/svg">
<g clip-path="url(#clip0_134_403)">
<path d="M0 27.7083C0.00231563 29.6415 0.771286 31.4948 2.13824 32.8618C3.50519 34.2287 5.35851 34.9977 7.29167 35H27.7083C29.6415 34.9977 31.4948 34.2287 32.8618 32.8618C34.2287 31.4948 34.9977 29.6415 35 27.7083V14.5833H0V27.7083ZM24.7917 21.1458C25.2243 21.1458 25.6472 21.2741 26.007 21.5145C26.3667 21.7549 26.6471 22.0965 26.8127 22.4962C26.9782 22.8959 27.0215 23.3358 26.9371 23.7601C26.8527 24.1844 26.6444 24.5742 26.3385 24.8801C26.0325 25.1861 25.6428 25.3944 25.2184 25.4788C24.7941 25.5632 24.3543 25.5199 23.9545 25.3543C23.5548 25.1887 23.2132 24.9084 22.9728 24.5486C22.7325 24.1889 22.6042 23.766 22.6042 23.3333C22.6042 22.7532 22.8346 22.1968 23.2449 21.7865C23.6551 21.3763 24.2115 21.1458 24.7917 21.1458ZM17.5 21.1458C17.9326 21.1458 18.3556 21.2741 18.7153 21.5145C19.075 21.7549 19.3554 22.0965 19.521 22.4962C19.6866 22.8959 19.7299 23.3358 19.6455 23.7601C19.5611 24.1844 19.3527 24.5742 19.0468 24.8801C18.7409 25.1861 18.3511 25.3944 17.9268 25.4788C17.5024 25.5632 17.0626 25.5199 16.6629 25.3543C16.2632 25.1887 15.9215 24.9084 15.6812 24.5486C15.4408 24.1889 15.3125 23.766 15.3125 23.3333C15.3125 22.7532 15.543 22.1968 15.9532 21.7865C16.3634 21.3763 16.9198 21.1458 17.5 21.1458ZM10.2083 21.1458C10.641 21.1458 11.0639 21.2741 11.4236 21.5145C11.7834 21.7549 12.0638 22.0965 12.2293 22.4962C12.3949 22.8959 12.4382 23.3358 12.3538 23.7601C12.2694 24.1844 12.0611 24.5742 11.7551 24.8801C11.4492 25.1861 11.0594 25.3944 10.6351 25.4788C10.2108 25.5632 9.77093 25.5199 9.37121 25.3543C8.9715 25.1887 8.62986 24.9084 8.38949 24.5486C8.14913 24.1889 8.02083 23.766 8.02083 23.3333C8.02083 22.7532 8.2513 22.1968 8.66154 21.7865C9.07177 21.3763 9.62817 21.1458 10.2083 21.1458Z" fill="#007FB1"/>
<path d="M27.7083 2.91667H26.25V1.45833C26.25 1.07156 26.0964 0.700627 25.8229 0.427136C25.5494 0.153645 25.1784 0 24.7917 0C24.4049 0 24.034 0.153645 23.7605 0.427136C23.487 0.700627 23.3333 1.07156 23.3333 1.45833V2.91667H11.6667V1.45833C11.6667 1.07156 11.513 0.700627 11.2395 0.427136C10.966 0.153645 10.5951 0 10.2083 0C9.82156 0 9.45063 0.153645 9.17714 0.427136C8.90365 0.700627 8.75 1.07156 8.75 1.45833V2.91667H7.29167C5.35851 2.91898 3.50519 3.68795 2.13824 5.0549C0.771286 6.42186 0.00231563 8.27517 0 10.2083L0 11.6667H35V10.2083C34.9977 8.27517 34.2287 6.42186 32.8618 5.0549C31.4948 3.68795 29.6415 2.91898 27.7083 2.91667Z" fill="#007FB1"/>
</g>
<defs>
<clipPath id="clip0_134_403">
<rect width="35" height="35" fill="white"/>
</clipPath>
</defs>
</svg>
