<svg width="35" height="35" viewBox="0 0 35 35" fill="none" xmlns="http://www.w3.org/2000/svg">
<path d="M2.58943 26.25C3.7957 28.3436 6.47081 29.0629 8.56439 27.8566C8.56582 27.8558 8.56719 27.8549 8.56862 27.8541L9.21756 27.4793C10.4426 28.5274 11.8506 29.3402 13.3709 29.8768V30.625C13.3709 33.0412 15.3296 35 17.7459 35C20.1621 35 22.1209 33.0412 22.1209 30.625V29.8769C23.6413 29.3394 25.0495 28.5256 26.2742 27.4764L26.9261 27.8527C29.0201 29.0608 31.6971 28.3426 32.9052 26.2485C34.1134 24.1544 33.3952 21.4774 31.3011 20.2693L30.6536 19.896C30.945 18.31 30.945 16.6841 30.6536 15.0981L31.3011 14.7247C33.3951 13.5166 34.1134 10.8397 32.9052 8.74556C31.6971 6.6515 29.0202 5.93325 26.9261 7.14137L26.2771 7.51618C25.0509 6.46939 23.6419 5.65811 22.1209 5.12313V4.375C22.1209 1.95877 20.1621 0 17.7459 0C15.3296 0 13.3709 1.95877 13.3709 4.375V5.12313C11.8504 5.66063 10.4423 6.47438 9.21756 7.52356L8.56568 7.14588C6.47156 5.9377 3.79461 6.65595 2.5865 8.75C1.37838 10.8441 2.09656 13.5211 4.19068 14.7292L4.83818 15.1025C4.5467 16.6885 4.5467 18.3144 4.83818 19.9004L4.19068 20.2737C2.10237 21.4851 1.38651 24.1568 2.58943 26.25ZM17.7459 11.6667C20.9675 11.6667 23.5792 14.2784 23.5792 17.5C23.5792 20.7216 20.9675 23.3333 17.7459 23.3333C14.5242 23.3333 11.9126 20.7216 11.9126 17.5C11.9126 14.2784 14.5242 11.6667 17.7459 11.6667Z" fill="#007FB1"/>
</svg>
