<svg width="25" height="25" viewBox="0 0 25 25" fill="none" xmlns="http://www.w3.org/2000/svg">
<rect width="25" height="25" rx="12.5" fill="#0E6D62"/>
<g clip-path="url(#clip0_87_528)">
<path d="M19.283 5.71747C18.8581 5.29322 18.2822 5.05493 17.6818 5.05493C17.0813 5.05493 16.5054 5.29322 16.0805 5.71747L5.91551 15.8825C5.62442 16.1719 5.39361 16.5162 5.23645 16.8955C5.07928 17.2747 4.99888 17.6813 4.99989 18.0918V19.375C4.99989 19.5407 5.06574 19.6997 5.18295 19.8169C5.30016 19.9341 5.45913 20 5.62489 20H6.90801C7.31849 20.0011 7.72512 19.9209 8.10436 19.7638C8.4836 19.6067 8.82792 19.376 9.11739 19.085L19.283 8.91935C19.7071 8.49447 19.9452 7.9187 19.9452 7.31841C19.9452 6.71812 19.7071 6.14235 19.283 5.71747ZM8.23364 18.2012C7.88114 18.5514 7.40486 18.7485 6.90801 18.75H6.24989V18.0918C6.24925 17.8455 6.29748 17.6015 6.39179 17.374C6.48609 17.1465 6.62458 16.9399 6.79926 16.7662L14.5136 9.05185L15.9511 10.4893L8.23364 18.2012ZM18.3986 8.0356L16.8324 9.60247L15.3949 8.1681L16.9618 6.60122C17.0562 6.50704 17.1682 6.43237 17.2914 6.38148C17.4147 6.33058 17.5467 6.30446 17.6801 6.30461C17.8134 6.30476 17.9454 6.33116 18.0685 6.38232C18.1917 6.43348 18.3035 6.5084 18.3977 6.60278C18.4919 6.69717 18.5666 6.80919 18.6174 6.93243C18.6683 7.05568 18.6945 7.18774 18.6943 7.32108C18.6942 7.45442 18.6678 7.58642 18.6166 7.70955C18.5654 7.83269 18.4905 7.94454 18.3961 8.03872L18.3986 8.0356Z" fill="white"/>
</g>
<defs>
<clipPath id="clip0_87_528">
<rect width="15" height="15" fill="white" transform="translate(5 5)"/>
</clipPath>
</defs>
</svg>
